<svg width="24" height="24" viewBox="0 0 24 24" fill="none" xmlns="http://www.w3.org/2000/svg">
<path d="M10 7H14M1.5 14.5C1.5 14.5 5.5 5 6 4C6.5 3 7.5 3 8 3C8.5 3 10 3 10 5V16H14V5C14 3 15.5 3 16 3C16.5 3 17.5 3 18 4C18.5 5 22.5 14.5 22.5 14.5M18.5 21C19.0909 21 19.6761 20.8836 20.2221 20.6575C20.768 20.4313 21.2641 20.0998 21.682 19.682C22.0998 19.2641 22.4313 18.768 22.6575 18.2221C22.8836 17.6761 23 17.0909 23 16.5C23 15.9091 22.8836 15.3239 22.6575 14.7779C22.4313 14.232 22.0998 13.7359 21.682 13.318C21.2641 12.9002 20.768 12.5687 20.2221 12.3425C19.6761 12.1164 19.0909 12 18.5 12C17.3065 12 16.1619 12.4741 15.318 13.318C14.4741 14.1619 14 15.3065 14 16.5C14 17.6935 14.4741 18.8381 15.318 19.682C16.1619 20.5259 17.3065 21 18.5 21ZM5.5 21C4.90905 21 4.32389 20.8836 3.77792 20.6575C3.23196 20.4313 2.73588 20.0998 2.31802 19.682C1.90016 19.2641 1.56869 18.768 1.34254 18.2221C1.1164 17.6761 1 17.0909 1 16.5C1 15.9091 1.1164 15.3239 1.34254 14.7779C1.56869 14.232 1.90016 13.7359 2.31802 13.318C2.73588 12.9002 3.23196 12.5687 3.77792 12.3425C4.32389 12.1164 4.90905 12 5.5 12C6.69347 12 7.83807 12.4741 8.68198 13.318C9.52589 14.1619 10 15.3065 10 16.5C10 17.6935 9.52589 18.8381 8.68198 19.682C7.83807 20.5259 6.69347 21 5.5 21Z" stroke="#282828" stroke-width="2"/>
</svg>
