<svg width="24" height="24" viewBox="0 0 24 24" fill="none" xmlns="http://www.w3.org/2000/svg">
<path fill-rule="evenodd" clip-rule="evenodd" d="M6.4186 0C6.64065 0 6.85359 0.0882058 7.0106 0.245213C7.16761 0.40222 7.25581 0.615168 7.25581 0.837209V2.7907H7.58512C8.06847 2.7907 8.51163 2.7907 8.87107 2.8387C9.26847 2.89228 9.68707 3.0173 10.032 3.36335C10.378 3.70828 10.5031 4.12688 10.5567 4.52428C10.6047 4.88484 10.6047 5.328 10.6047 5.81023V7.40316C10.6794 7.46233 10.752 7.52595 10.8212 7.59628C11.3302 8.1053 11.5379 8.73823 11.6316 9.43814C11.6964 9.92261 11.7142 10.4986 11.7187 11.1628H12.2791V7.21116C12.2791 5.80688 12.2791 4.65823 12.4086 3.78195C12.5425 2.8733 12.8406 2.06288 13.6007 1.536C14.3598 1.00912 15.2249 1.0147 16.1224 1.20781C16.9875 1.39535 18.0636 1.79833 19.3786 2.2906L19.4858 2.33191C20.15 2.58084 20.7137 2.79181 21.1546 3.01619C21.6234 3.25507 22.0309 3.54307 22.3379 3.98512C22.6437 4.42716 22.771 4.90828 22.829 5.43181C22.8837 5.92409 22.8837 6.52577 22.8837 7.23572V22.3256H23.1628C23.3848 22.3256 23.5978 22.4138 23.7548 22.5708C23.9118 22.7278 24 22.9408 24 23.1628C24 23.3848 23.9118 23.5978 23.7548 23.7548C23.5978 23.9118 23.3848 24 23.1628 24H0.837209C0.615168 24 0.40222 23.9118 0.245213 23.7548C0.0882058 23.5978 0 23.3848 0 23.1628C0 22.9408 0.0882058 22.7278 0.245213 22.5708C0.40222 22.4138 0.615168 22.3256 0.837209 22.3256H1.11628V11.942C1.11628 10.9384 1.11628 10.1023 1.20558 9.43926C1.29935 8.73823 1.50698 8.1053 2.01488 7.5974C2.08362 7.52849 2.1563 7.46363 2.23256 7.40316V5.81023C2.23256 5.32688 2.23256 4.88372 2.28056 4.52428C2.33414 4.12688 2.45916 3.70828 2.80521 3.36335C3.15014 3.0173 3.56874 2.89228 3.96614 2.8387C4.3267 2.7907 4.76986 2.7907 5.25209 2.7907H5.5814V0.837209C5.5814 0.615168 5.6696 0.40222 5.82661 0.245213C5.98362 0.0882058 6.19656 0 6.4186 0ZM3.90698 6.78028C4.56335 6.69767 5.3827 6.69767 6.36056 6.69767H6.47665C7.45451 6.69767 8.27386 6.69767 8.93023 6.78028V5.86047C8.93023 5.31014 8.928 4.98195 8.89674 4.74753C8.8897 4.67993 8.87394 4.61352 8.84986 4.54995L8.84874 4.5466L8.8454 4.54549C8.78183 4.52141 8.71542 4.50565 8.64781 4.49861C8.4134 4.46735 8.08521 4.46512 7.53488 4.46512H5.30233C4.752 4.46512 4.42381 4.46735 4.1894 4.49861C4.12179 4.50565 4.05538 4.52141 3.99181 4.54549L3.98847 4.5466L3.98735 4.54995C3.96327 4.61352 3.94751 4.67993 3.94047 4.74753C3.90921 4.98195 3.90698 5.31014 3.90698 5.86047V6.78028ZM2.7907 22.3256H5.5814V16.4071C5.5814 15.4035 5.5814 14.5674 5.6707 13.9044C5.76447 13.2034 5.97209 12.5704 6.48 12.0625C6.98902 11.5535 7.62195 11.3459 8.32186 11.2521C8.80633 11.1873 9.38009 11.1695 10.0443 11.165C10.0398 10.5287 10.0242 10.0487 9.97284 9.6614C9.90251 9.14679 9.78307 8.92577 9.63795 8.78065C9.49284 8.63554 9.27181 8.51609 8.75609 8.44577C8.21916 8.37544 7.49581 8.37209 6.4186 8.37209C5.3414 8.37209 4.61916 8.37433 4.08 8.44688C3.5654 8.51609 3.34437 8.63554 3.19926 8.78177C3.05414 8.92688 2.9347 9.14679 2.86437 9.6614C2.79293 10.2006 2.7907 10.9239 2.7907 12V22.3256ZM7.25581 22.3256H16.7442V16.4651C16.7442 15.389 16.742 14.6657 16.6694 14.1265C16.6002 13.6119 16.4807 13.3909 16.3345 13.2458C16.1894 13.1007 15.9695 12.9812 15.4549 12.9109C14.9157 12.8394 14.1924 12.8372 13.1163 12.8372H10.8837C9.80763 12.8372 9.08428 12.8394 8.54512 12.9109C8.03051 12.9812 7.80949 13.1007 7.66437 13.2458C7.51926 13.3909 7.39981 13.6119 7.32949 14.1276C7.25805 14.6657 7.25581 15.389 7.25581 16.4651V22.3256ZM18.4186 22.3256H21.2093V7.28037C21.2093 6.51349 21.2082 6.0067 21.1647 5.61712C21.1233 5.24874 21.053 5.07014 20.9604 4.93842C20.87 4.8067 20.726 4.67609 20.3967 4.50865C20.0473 4.33228 19.574 4.15256 18.8562 3.88354C17.4597 3.36 16.5008 3.00167 15.7697 2.8454C15.0553 2.69135 14.755 2.77284 14.554 2.91237C14.3531 3.05079 14.1712 3.30419 14.0651 4.02642C13.9557 4.7654 13.9535 5.79014 13.9535 7.28037V11.165C14.6177 11.1695 15.1937 11.1873 15.677 11.2521C16.378 11.3459 17.011 11.5535 17.5189 12.0625C18.0279 12.5704 18.2355 13.2034 18.3293 13.9044C18.4186 14.5674 18.4186 15.4047 18.4186 16.4071V22.3256ZM8.93023 15.3488C8.93023 15.1268 9.01844 14.9138 9.17545 14.7568C9.33245 14.5998 9.5454 14.5116 9.76744 14.5116H14.2326C14.4546 14.5116 14.6675 14.5998 14.8246 14.7568C14.9816 14.9138 15.0698 15.1268 15.0698 15.3488C15.0698 15.5709 14.9816 15.7838 14.8246 15.9408C14.6675 16.0978 14.4546 16.186 14.2326 16.186H9.76744C9.5454 16.186 9.33245 16.0978 9.17545 15.9408C9.01844 15.7838 8.93023 15.5709 8.93023 15.3488ZM8.93023 18.6977C8.93023 18.4756 9.01844 18.2627 9.17545 18.1057C9.33245 17.9487 9.5454 17.8605 9.76744 17.8605H14.2326C14.4546 17.8605 14.6675 17.9487 14.8246 18.1057C14.9816 18.2627 15.0698 18.4756 15.0698 18.6977C15.0698 18.9197 14.9816 19.1327 14.8246 19.2897C14.6675 19.4467 14.4546 19.5349 14.2326 19.5349H9.76744C9.5454 19.5349 9.33245 19.4467 9.17545 19.2897C9.01844 19.1327 8.93023 18.9197 8.93023 18.6977Z" fill="#282828"/>
</svg>
